<?xml version="1.0" encoding="UTF-8"?>
<svg xmlns="http://www.w3.org/2000/svg" width="49" height="32" viewBox="0 0 49 32">
<g transform="scale(0.48060,0.93805) translate(-86.9496,-3.2676)">
<g transform="scale(0.5)"><g transform="translate(-33.923347,-55.346467)"><path xmlns="http://www.w3.org/2000/svg" style="fill:#666666;fill-opacity:1;stroke:#1a1a1a;stroke-width:7.404" d="m 178.06891,67.150819 c 1.58117,-8.118024 8.50694,-20.262891 15.03998,-26.373786 13.41365,-12.546907 37.93205,-21.739759 74.61762,-27.976903 20.03154,-3.4056877 79.86859,-3.4209637 89.60256,-0.02287 7.15047,2.496196 18.35517,11.087727 16.59446,12.724272 -0.58597,0.544638 -11.05616,1.965311 -23.2671,3.157051 -70.36601,6.867445 -116.18386,17.113651 -154.75899,34.608618 -8.26034,3.746311 -15.8466,7.157025 -16.85836,7.579367 -1.4621,0.610326 -1.66117,-0.148016 -0.97017,-3.695744 z" transform="translate(33.923347,55.346467)" id="LB" />
      </g></g>
</g>
</svg>
