<?xml version="1.0" encoding="UTF-8"?>
<svg xmlns="http://www.w3.org/2000/svg" width="49" height="32" viewBox="0 0 49 32">
<g transform="scale(0.60057,0.38813) translate(-47.8949,-249.6440)">
<g xmlns="http://www.w3.org/2000/svg" xmlns:inkscape="http://www.inkscape.org/namespaces/inkscape" xmlns:sodipodi="http://sodipodi.sourceforge.net/DTD/sodipodi-0.dtd" id="LGRIP" transform="matrix(1.1060296,0,0,1.1060296,-33.696232,-32.921155)" inkscape:label="#LGRIP">
    <path style="fill:#6c6c6c;fill-opacity:1;stroke:#1a1a1a;stroke-width:2.53788;stroke-dasharray:none;stroke-opacity:1;opacity:1" d="m 113.88056,256.98988 c -15.790484,-2.11245 -31.563825,9.99958 -36.921316,24.50234 -1.785261,4.83271 -2.076903,10.00919 -1.857358,15.11549 0.407535,9.47855 5.633613,18.84801 12.855068,24.69875 4.490224,3.63794 10.37207,6.31153 16.029096,7.08764 12.04386,1.65235 24.43944,-2.4528 32.83205,-11.6324 14.14002,-15.46596 12.37195,-41.42733 -5.12743,-53.54027 -5.43142,-3.75958 -11.39553,-5.3734 -17.81011,-6.23155 m 1.58312,3.82926 c -3.1541,-0.42173 -6.73872,0.19401 -9.8945,0.99774 -0.92613,0.23586 -1.64375,0.54781 -2.57258,0.83571 -1.36566,0.4233 -1.46911,0.0231 -2.96835,0.67087 -7.197299,3.10974 -13.707473,8.52579 -17.254303,15.75028 -6.756698,13.76264 -3.055497,31.77676 9.536591,40.70313 4.098622,2.90546 8.938732,4.53318 13.852302,5.19121 1.2949,0.17341 3.77561,0.34231 4.94726,0.24664 0.9387,-0.0766 0.99352,-0.48468 2.17679,-0.5813 0.91539,-0.0747 1.37049,0.0109 2.17679,-0.0972 1.57272,-0.21092 3.57574,-0.5214 5.14514,-0.98079 1.64917,-0.48275 3.23535,-0.99854 4.74937,-1.69366 2.74842,-1.26185 5.41984,-3.0162 7.71771,-5.08997 2.73342,-2.46683 5.06655,-5.31628 6.84156,-8.47478 0.3478,-0.61889 0.61112,-1.17293 0.92502,-1.81386 4.07501,-8.32066 4.64871,-18.26783 0.88012,-26.80481 -0.49679,-1.12538 -1.02113,-2.15268 -1.57319,-3.22464 -0.41939,-0.81436 -0.80095,-1.48867 -1.2843,-2.21695 -2.0614,-3.10595 -4.52906,-5.82878 -7.57022,-7.92645 -1.10887,-0.76485 -2.34541,-1.57138 -3.56202,-2.19967 -3.92096,-2.02492 -7.94857,-2.7138 -12.26919,-3.29151 m -14.64387,2.1314 0.79156,0.80616 c -3.545966,2.57101 -7.114415,4.37063 -10.005514,7.86006 -4.027507,4.86102 -6.543419,10.94905 -7.489898,17.13089 -0.199892,1.30559 -0.314697,2.68746 -0.314697,4.0308 0,0.71371 1.99e-4,1.16594 0.08398,1.81386 0.166836,1.2903 0.415021,3.1938 0.708197,4.63542 0.909058,4.47003 2.76923,8.75962 5.349592,12.49548 3.225689,4.67016 7.864416,8.30691 13.05357,10.43964 1.95981,0.80547 4.07078,1.41398 6.1346,1.76659 0.45802,0.0783 1.88714,0.25635 2.1719,0.30634 0.60468,0.10617 0.76322,0.26021 0.99434,0.38598 m -10.29029,-61.46968 -0.39578,0.60462" id="LGRIP-9" sodipodi:nodetypes="cssssssccssssssssssssssssssscccsssssssssccc" />
    <text x="98.910621" y="301.3247" style="font-size:31.5824px;line-height:1.25;font-family:'Bitstream Vera Sans Mono';letter-spacing:0px;word-spacing:0px;fill:#1a1a1a;opacity:1"><tspan style="font-style:normal;font-variant:normal;font-weight:bold;font-stretch:normal;font-size:31.5824px;font-family:'Apolonia Nova OT';-inkscape-font-specification:'Apolonia Nova OT Bold';fill:#1a1a1a" x="98.910621" y="301.3247">L4</tspan></text></g>
  
</g>
</svg>
