<?xml version="1.0" encoding="UTF-8"?>
<svg xmlns="http://www.w3.org/2000/svg" width="49" height="32" viewBox="0 0 49 32">
<g transform="scale(0.65334,0.96082) translate(-83.6604,13.6804)">
<path xmlns="http://www.w3.org/2000/svg" id="LT" style="fill:#6c6c6c;fill-opacity:1;stroke:#1a1a1a;stroke-width:3.81946;stroke-dasharray:none;stroke-opacity:1" d="m 108.54807,-11.764105 c -4.23931,-0.06386 -8.634741,0.332288 -12.57949,1.8862855 -3.170486,1.2489783 -6.674675,2.8636727 -8.429668,5.7846067 -2.10807,3.50858709 -2.413456,8.2413716 -1.381144,12.2022376 0.923104,3.5417972 6.404843,8.9177572 6.404843,8.9177572 0,0 4.75513,-4.129317 7.481199,-5.663117 5.15436,-2.9000647 10.86769,-4.7170916 16.497,-6.5305946 5.38138,-1.733627 9.49015,-3.0446031 16.44797,-4.13703805 6.95781,-1.092436 25.24425,-1.64330576 25.24425,-1.64330576 0,0 -11.73853,-2.68893359 -17.60959,-4.02620559 -6.0985,-1.389074 -12.54289,-3.0921772 -18.86711,-4.4013312 -4.38116,-0.9069298 -8.73473,-2.3219048 -13.20826,-2.3892948 z" />
  
</g>
</svg>
