<?xml version="1.0" encoding="UTF-8"?>
<svg xmlns="http://www.w3.org/2000/svg" width="49" height="32" viewBox="0 0 49 32">
<g transform="scale(0.60507,0.37823) translate(-553.0940,-336.9460)">
<g xmlns="http://www.w3.org/2000/svg" xmlns:inkscape="http://www.inkscape.org/namespaces/inkscape" xmlns:sodipodi="http://sodipodi.sourceforge.net/DTD/sodipodi-0.dtd" id="RGRIP2" transform="matrix(0.23391414,0,0,0.23391414,404.6299,153.08091)" inkscape:label="#RGRIP2">
    <path style="fill:#6c6c6c;fill-opacity:1;stroke:#1a1a1a;stroke-width:12;stroke-dasharray:none;stroke-opacity:1;opacity:1" d="m 783.82205,792.90411 c 20.64783,-2.73025 45.44397,1.42194 65.31697,8.06836 39.2348,13.12195 73.5655,39.61945 95.8354,74.72245 16.7828,26.454 26.9146,57.162 29.0364,88.1007 0.3182,4.6399 0.8877,6.9657 0.8877,11.7468 0,5.0528 -0.6893,7.6023 -0.9373,12.7256 -3.8026,78.55008 -66.1512,143.15838 -143.3449,152.42848 -118.40025,14.2185 -216.16423,-121.357 -183.54976,-231.71908 12.27014,-41.5201 37.6113,-77.7475 76.31294,-98.3897 13.70895,-7.31191 28.70077,-12.36703 43.86959,-15.35423 5.34024,-1.05163 11.41866,-1.64788 16.57296,-2.32938 m 40.94497,27.97261 c 7.3112,-6.6316 15.7602,-1.5773 24.372,1.7727 21.34,8.3016 40.4695,22.1973 56.543,38.362 48.487,48.762 62.6739,127.3008 30.3296,188.92718 -12.8399,24.4642 -32.8678,45.9717 -57.6262,58.4913 -11.7025,5.9176 -25.1984,11.311 -38.0203,13.4923 -6.169,1.0496 -6.1507,-0.7871 -11.6986,-0.1488 -2.8261,0.3252 -6.8935,0.7894 -9.7488,1.1671 -4.6911,0.6201 -10.0579,0.4153 -14.62319,0.4153 -2.92958,0 -4.77693,0.032 -7.79904,0 -9.48033,-0.1131 -22.72355,-2.6021 -32.17103,-5.3091 -7.9591,-2.2805 -15.25053,-5.5281 -22.42224,-9.1288 -4.61212,-2.3155 -8.3489,-4.2264 -12.67344,-7.0978 -18.00401,-11.9545 -33.82073,-28.0132 -45.81861,-46.0043 -5.64393,-8.4634 -11.01922,-17.3707 -15.02338,-26.4303 -1.48257,-3.3544 -2.58291,-6.3878 -3.93787,-9.7889 -9.7723,-24.53078 -13.9728,-51.58678 -12.14838,-78.31178 1.08447,-15.8861 6.08638,-32.4887 12.31238,-46.9871 1.47567,-3.4363 2.69617,-6.4008 4.42605,-9.7889 3.31413,-6.4911 7.28934,-12.7209 11.44656,-18.5991 14.16574,-20.0302 35.37248,-37.4538 58.49205,-45.6713 13.97251,-4.9662 30.26388,-8.167 44.84447,-8.168 3.85627,-2e-4 5.99733,0 9.7488,0 4.56427,0 9.27582,0.5369 13.64827,1.3596 3.5597,0.6698 8.6983,1.2139 12.5817,3.0507 3.2872,1.5549 3.9171,3.2029 4.9662,4.3998 m -2.9247,-3.9156 c 2.0013,-0.9526 2.8843,-1.8752 6.8242,0 m -2.9246,2.9367 c 19.6584,12.2686 39.3706,19.5464 56.5046,36.3068 20.7852,20.3279 35.1013,47.8794 42.9331,75.2836 2.4292,8.4998 5.3288,20.6072 5.8147,29.3669 0.1382,2.4922 0.2621,4.301 0.5957,6.8523 0.3668,2.8045 0.4138,4.7896 0.4138,7.8312 0,3.3617 -0.1553,5.7153 -0.5612,8.81 -1.7557,13.3878 -3.5309,26.70578 -7.8908,40.13478 -9.1062,28.0484 -24.9024,53.475 -48.0911,71.9981 -8.2311,6.5749 -17.588,12.0344 -27.2966,16.0913 -3.0913,1.2918 -9.295,3.5774 -11.6745,4.6754 -2.9599,1.3659 -3.715,2.2579 -4.8985,3.1671" id="RGRIP2-0" sodipodi:nodetypes="csssssssssccsssssscscssssssssssssssscccccsssssssssc" />
    <text xml:space="preserve" style="font-size:149.333px;line-height:1.25;font-family:'Bitstream Vera Sans Mono';-inkscape-font-specification:'Bitstream Vera Sans Mono';letter-spacing:14.933px;word-spacing:0px;fill:#1a1a1a;opacity:1" x="710.22345" y="1004.972" id="text2-0-2"><tspan sodipodi:role="line" id="tspan2-5-2" x="710.22345" y="1004.972" style="font-style:normal;font-variant:normal;font-weight:bold;font-stretch:normal;font-size:149.333px;font-family:'Apolonia Nova OT';-inkscape-font-specification:'Apolonia Nova OT Bold';fill:#1a1a1a">R5</tspan></text>
  </g>
  
</g>
</svg>
