<?xml version="1.0" encoding="UTF-8"?>
<svg xmlns="http://www.w3.org/2000/svg" width="49" height="32" viewBox="0 0 49 32">
<g transform="scale(0.65333,0.96075) translate(-530.3470,13.6804)">
<path xmlns="http://www.w3.org/2000/svg" id="RT" style="fill:#6c6c6c;fill-opacity:1;stroke:#1a1a1a;stroke-width:3.81946;stroke-dasharray:none;stroke-opacity:1" d="m 580.46085,-11.764105 c -4.47353,0.06739 -8.8271,1.482364 -13.20825,2.3892938 -6.32421,1.3091541 -12.77073,3.0143875 -18.86924,4.4034625 -5.87107,1.337271 -17.60959,4.02620559 -17.60959,4.02620559 0,0 18.28643,0.54873931 25.24424,1.64117427 6.95783,1.09243604 11.0666,2.40554394 16.44798,4.13916994 5.6293,1.813502 11.34477,3.628397 16.49913,6.5284629 2.72608,1.533799 7.47907,5.665249 7.47907,5.665249 0,0 5.48387,-5.37596 6.40697,-8.9177579 1.03232,-3.960865 0.72267,-8.6936505 -1.38541,-12.2022375 -1.75499,-2.920936 -5.25493,-4.537761 -8.4254,-5.7867381 -3.94476,-1.5539975 -8.34017,-1.9501445 -12.5795,-1.8862845 z" />
  
</g>
</svg>
