<?xml version='1.0' encoding='utf-8'?>
<svg xmlns="http://www.w3.org/2000/svg" viewBox="662.775 209.236 123.792 113.696" width="49.5169" height="45.4782"><path d="M 726.4018 216.6406 C 709.6856 215.8673 692.9454 223.7318 682.9975 238.6288 C 669.4070 258.9807 673.0958 287.2302 691.4585 303.4179 C 697.0435 308.3413 701.9293 311.0734 709.8862 313.7246 C 717.6138 316.2994 733.1056 315.7658 741.1304 312.6484 C 767.4162 302.4372 779.9357 270.7166 767.8100 245.0527 C 764.2334 237.4826 754.9533 226.9593 748.5405 223.2011 C 741.5930 219.1296 734.0001 216.9921 726.4018 216.6406 Z  M 722.5737 220.5878 C 743.9711 220.0285 764.3286 236.6654 767.8491 259.5742 C 770.7796 278.6437 760.1186 298.3902 742.0815 307.3046 C 735.4227 310.5956 733.7132 311.0039 725.5210 311.2675 C 711.1462 311.7301 699.9830 307.0198 690.5229 296.4980 C 686.5392 292.0671 680.2416 280.8673 681.1968 279.9121 C 681.4170 279.6919 684.9248 280.7804 688.9917 282.3300 C 694.6465 284.4845 696.4587 285.6465 696.6948 287.2695 C 697.5175 292.9253 706.3215 297.4395 712.8667 295.5624 C 717.5507 294.2191 721.8104 289.8323 722.5405 285.5996 C 723.0156 282.8452 724.4844 280.9443 729.1421 277.0566 C 736.6891 270.7571 736.6450 270.7822 741.1069 270.0703 C 752.0122 268.3305 757.8503 254.1438 751.5679 244.6503 C 748.7694 240.4215 741.9963 236.5566 737.3862 236.5566 C 730.2615 236.5566 722.6902 243.1429 721.2534 250.5917 C 720.8859 252.4970 718.1845 257.4087 715.2495 261.5058 C 710.5473 268.0702 709.3850 269.0885 705.4722 270.0820 C 701.2832 271.1456 700.4040 270.9585 689.9350 266.7695 L 678.8393 262.3300 L 679.4975 258.6933 C 682.6876 241.0660 696.0868 226.5219 713.3862 221.9121 C 716.4394 221.0985 719.5169 220.6677 722.5737 220.5878 Z  M 736.9917 241.6855 C 744.3717 241.3997 751.3411 248.7588 748.9663 256.6855 C 748.3526 258.7339 746.4748 261.5669 744.7925 262.9824 C 739.4394 267.4868 730.5937 265.7562 727.3999 259.5800 C 724.3275 253.6388 726.2945 246.5187 731.9272 243.1914 C 733.5642 242.2244 735.2886 241.7514 736.9917 241.6855 Z  M 737.8510 245.6679 C 734.5163 245.6392 731.1851 247.6397 729.8296 251.2050 C 728.5986 254.4425 731.0095 260.2729 734.0913 261.5097 C 737.2401 262.7735 738.6558 262.7489 741.2026 261.3925 C 746.4852 258.5790 747.5573 252.1379 743.4311 248.0117 C 741.8534 246.4339 739.8519 245.6851 737.8510 245.6679 Z  M 709.9038 272.5566 C 714.4419 272.5566 718.8862 277.2509 718.8862 282.0449 C 718.8862 286.7321 717.5384 289.1683 713.9057 291.0468 C 709.6662 293.2391 706.3795 292.9079 703.1929 289.9687 C 701.0100 287.9554 700.8303 287.5323 702.3862 288.0663 C 703.4862 288.4438 706.0224 288.9867 708.0210 289.2714 C 715.1091 290.2809 718.6577 282.2383 713.4311 277.0117 C 712.0811 275.6617 710.3092 274.5566 709.4917 274.5566 C 708.6741 274.5566 707.7261 274.1066 707.3862 273.5566 C 707.0244 272.9712 708.0678 272.5566 709.9038 272.5566 Z " style="fill:#000000" /></svg>