<?xml version='1.0' encoding='UTF-8'?>
<svg xmlns="http://www.w3.org/2000/svg" xmlns:inkscape="http://www.inkscape.org/namespaces/inkscape" xmlns:sodipodi="http://sodipodi.sourceforge.net/DTD/sodipodi-0.dtd" width="685.45099" height="538.01898" viewBox="0 -45 685.45099 538.01898" version="1.1" id="svg1" sodipodi:docname="sc2-editing.svg" inkscape:version="1.4.4 (dcaf3e7d9e, 2026-05-05)">
  <sodipodi:namedview id="namedview1" pagecolor="#505050" bordercolor="#eeeeee" borderopacity="1" inkscape:showpageshadow="0" inkscape:pageopacity="0" inkscape:pagecheckerboard="0" inkscape:deskcolor="#505050" inkscape:zoom="1.2149633" inkscape:cx="400.42362" inkscape:cy="330.87419" inkscape:window-width="1650" inkscape:window-height="1255" inkscape:window-x="0" inkscape:window-y="0" inkscape:window-maximized="0" inkscape:current-layer="svg1" />
  <defs id="defs1" />
  <g id="scaler" transform="scale(0.5)">
    <g id="art" transform="translate(-33.923347,-55.346467)">
      <path style="fill:#000000" d="m 278.55862,156.16644 c -7.7642,0.46274 -14.5131,1.38406 -18.4278,2.65821 -6.3812,2.077 -12.2445,8.7118 -13.7012,15.5039 -0.5883,2.7432 -1.0703,13.89551 -1.0703,24.78321 0,17.5835 -0.1955,19.972 -1.75,21.3789 -1.4634,1.3243 -5.4358,1.63765 -24.25,1.90625 -21.851,0.3119 -22.6285,0.39241 -26.9589,2.82031 -5.1454,2.8848 -9.8604,9.74672 -11.1524,16.22852 -1.707,8.5633 -2.2144,33.15701 -0.9258,44.84961 1.3053,11.8429 3.0025,16.7066 7.2032,20.62503 5.1121,4.7685 8.2847,5.2968 31.746,5.2968 21.5751,0 22.003,0.041 23.5313,2.2227 1.295,1.849 1.5566,5.9398 1.5566,24.3418 0,21.21892 0.094,22.30162 2.3243,26.52932 4.213,7.988 9.381,10.2208 27.1757,11.7441 11.1123,0.9512 24.4985,0.669 38.81644,-0.8183 9.8385,-1.022 15.94772,-4.4697 19.35742,-10.9258 2.2296,-4.2225 2.32617,-5.3178 2.32617,-26.11522 0,-20.4471 0.12007,-21.862 2.07227,-24.3438 l 2.07421,-2.6348 h 21.74805 c 21.7423,0 21.74984,-7e-4 27.17774,-2.75 10.3323,-5.2334 12.49283,-14.56109 11.67773,-50.39449 -0.4275,-18.7953 -0.66944,-21.06014 -2.71094,-25.27734 -2.4297,-5.019 -6.5757,-8.64425 -11.9375,-10.43945 -2.1063,-0.7052 -11.30253,-1.13868 -24.17773,-1.13868 h -20.77735 l -2.07421,-2.63476 c -1.9567,-2.4876 -2.07227,-3.88676 -2.07227,-25.03906 0,-20.346 -0.18086,-22.76145 -1.97656,-26.28125 -4.0548,-7.9482 -10.7792,-10.6093 -30.31247,-11.9961 -7.9697,-0.5658 -16.7476,-0.56234 -24.5117,-0.0996 z m 16.8007,3.71094 c 25.20113,1.9045 30.19344,3.32848 34.09964,9.73438 1.7079,2.8008 1.89648,5.28769 1.89648,25.40429 0.005,32.5548 -1.23117,31.20117 28.51563,31.20117 19.8571,0 21.32144,0.1291 25.52734,2.25 7.4691,3.7665 8.85716,7.87458 9.56446,28.29688 0.3229,9.3246 0.14155,22.22326 -0.40235,28.66406 -1.1608,13.7442 -2.88939,17.49205 -9.55469,20.71872 -3.9234,1.8992 -6.07321,2.0703 -25.94531,2.0703 H 337.3906 l -3.26562,2.9161 -3.26563,2.916 -0.5,23.334 c -0.4739,22.11802 -0.61861,23.52632 -2.78711,27.01362 -3.3399,5.3712 -8.71279,7.5143 -20.71292,8.2657 -5.5,0.3444 -12.25,0.7987 -15,1.0097 -2.75,0.2109 -11.1374,-0.1867 -18.6386,-0.8847 -15.9029,-1.48 -19.8851,-3.2103 -22.9571,-9.9746 -1.6243,-3.5764 -1.8618,-6.7943 -1.8808,-25.39462 -0.023,-22.3541 -0.6183,-25.8435 -4.7364,-27.8144 -0.9829,-0.4703 -12.2177,-1.0874 -24.9668,-1.3711 -21.5079,-0.4788 -23.3835,-0.6664 -26,-2.6074 -7.4759,-5.54605 -8.8924,-11.79526 -8.7031,-38.40826 0.186,-26.1419 2.5425,-34.37205 11.0449,-38.59375 3.3546,-1.6657 6.5517,-1.94034 25.3379,-2.18164 13.8107,-0.1774 22.3179,-0.6916 23.7852,-1.4375 1.2563,-0.6386 3.1688,-2.59239 4.25,-4.34179 1.7963,-2.9064 1.9648,-5.05231 1.9648,-24.87891 0,-14.0758 0.3951,-22.46581 1.1231,-23.88281 2.2651,-4.409 6.4251,-7.7871 11.3496,-9.2168 6.0544,-1.7577 24.8969,-3.38324 32.5273,-2.80664 z m -17.8925,12.15234 c -8.2539,0.5149 -14.8019,1.54225 -16.2911,2.87305 -1.4687,1.3126 -1.7247,4.46956 -2,24.66016 -0.3627,26.6115 -1.0322,29.2955 -8.3164,33.3789 -3.8194,2.1411 -5.0408,2.24377 -27.0586,2.25977 -17.1047,0.0122 -23.5094,0.34587 -24.8046,1.29297 -2.66,1.945 -3.6452,7.71115 -4.3086,25.22265 -0.5915,15.6129 0.6302,31.19261 2.7109,34.56641 0.7149,1.1593 5.5749,1.52949 25.3535,1.93359 27.1768,0.5554 27.3221,0.59184 32.3574,7.99026 2.173,3.1934 2.25,4.0942 2.25,26.4668 0,17.99492 0.3044,23.57642 1.3653,25.02732 1.0109,1.3825 3.2826,2.0605 8.75,2.6114 8.0494,0.811 42.3773,0.302 47.67184,-0.7071 5.7062,-1.0876 6.21289,-3.3927 6.21289,-28.19142 0,-21.0663 0.0858,-22.0305 2.25781,-25.2988 1.2419,-1.8688 4.26329,-4.41096 6.71289,-5.64846 4.2214,-2.1326 5.61545,-2.25 26.71875,-2.25 21.9936,0 22.28295,-0.0274 23.71485,-2.25 4.3713,-6.7852 4.11985,-54.61964 -0.31055,-59.06054 -0.8216,-0.8236 -8.53981,-1.34336 -25.07031,-1.68946 -22.292,-0.4667 -24.07103,-0.64116 -26.70313,-2.60546 -6.3853,-4.7653 -6.77131,-6.5131 -7.32031,-33.1836 -0.3921,-19.0463 -0.79353,-24.47006 -1.86523,-25.13086 -0.7517,-0.4634 -7.7267,-1.39185 -15.5,-2.06445 -8.3131,-0.7193 -18.2735,-0.71803 -26.5273,-0.20313 z m -9.1075,4.85157 c 5.7157,-1.1361 36.8874,-1.1334 43.50003,0 l 5,0.85742 0.5,23.48828 c 0.498,23.3971 0.51179,23.50764 3.24219,28.15234 1.5076,2.5646 4.4326,5.7146 6.5,7 3.5899,2.232 4.81391,2.36039 27.25781,2.83789 l 23.5,0.5 0.80469,5.5 c 1.028,7.0312 1.01943,34.6605 -0.0137,42.5 l -0.79102,6 -23,0.5 c -25.9517,0.5642 -28.16675,1.1082 -33.93555,8.3418 l -3.06445,3.84376 -0.85937,24.1562 c -0.4727,13.2867 -0.94995,24.25982 -1.06055,24.38482 -0.1106,0.125 -3.32393,0.6788 -7.14061,1.2305 v 0 c -11.7674,1.7008 -40.1495,0.9016 -45.8633,-1.291 -1.1889,-0.4561 -1.4995,-4.7701 -1.7598,-24.51962 l -0.3164,-23.9648 -3.1054,-3.84181 c -6.145,-7.5979 -6.9842,-7.80069 -33.5801,-8.15429 l -23.6856,-0.31446 -0.8144,-5.68554 c -1.047,-7.3131 -0.797,-38.31845 0.3555,-44.18555 l 0.8828,-4.5 24.4746,-0.5 c 23.4677,-0.4795 24.628,-0.59699 28.2324,-2.83789 2.0673,-1.2854 4.9923,-4.4354 6.5,-7 2.7302,-4.6444 2.7422,-4.75632 3.2402,-28.13672 l 0.5,-23.47265 z" id="DPAD" />
      <path style="fill:#000000" d="m 924.81481,276.80465 c -8.56393,0.3361 -17.20703,1.8341 -25.76563,4.5332 -36.4537,11.4963 -61.82421,40.653 -68.07031,78.2265 -5.0985,30.6702 4.96191,61.32788 27.82031,84.77738 14.138,14.5037 29.48787,23.1348 48.72657,27.3965 13.0576,2.8925 35.405,2.1284 47,-1.6055 30.7523,-9.9032 53.13705,-30.8282 64.43165,-60.23238 5.3443,-13.9131 6.8993,-23.5449 6.2617,-38.7676 -0.6488,-15.4883 -2.9331,-24.9637 -9.25,-38.3516 -5.6479,-11.9701 -11.3414,-19.8998 -20.57031,-28.6523 -19.90635,-18.8789 -44.89221,-28.3325 -70.58398,-27.3242 z m 8.1582,5.1093 c 19.8491,0.9758 37.64123,9.4168 51.83203,24.5879 20.38776,21.7962 26.63276,51.3624 16.84376,79.7618 -3.75601,10.897 -8.11336,18.1128 -16.09766,26.6582 -11.354,12.15198 -23.97665,19.73408 -39.43555,23.68748 -10.392,2.6575 -25.99954,2.6384 -36.92774,-0.047 -21.9831,-5.4016 -42.73572,-22.97938 -52.04492,-44.08198 -12.6941,-28.776 -6.89938,-62.4383 14.72852,-85.5586 16.6703,-17.8205 37.11166,-26.1873 61.10156,-25.0079 z m -42.03711,6.7188 c 0.0305,0 0.0517,0.01 0.0645,0.018 h 0.002 c 0.002,0 0.005,0.01 0.006,0.01 0.11235,0.2789 -2.64746,2.3518 -6.48242,4.8437 -13.4967,8.77 -24.83593,22.3083 -31.29883,37.3672 -13.5563,31.5872 -5.96417,66.5111 19.67383,90.49418 8.2663,7.7327 17.79623,13.4211 29.21093,17.4336 7.6373,2.6847 10.70307,3.1993 21.41407,3.5996 17.6467,0.6595 26.2668,-1.1048 41,-8.3906 10.447,-5.1662 12.42603,-6.6124 21.61523,-15.793 9.1187,-9.11028 10.6124,-11.13988 15.15429,-20.59568 6.7074,-13.9638 8.7514,-22.5841 8.6524,-36.4883 -0.058,-8.141 -0.6589,-13.0792 -2.3125,-19 -5.3453,-19.1385 -18.11822,-37.1099 -34.10942,-47.9922 -2.46963,-1.6806 -3.99993,-2.9175 -3.90625,-3.1211 5.2e-4,-9e-4 0.003,-0.01 0.004,-0.01 h 0.002 0.002 c 0.0345,-0.031 0.13805,-0.023 0.31054,0.035 3.4304,1.1628 14.94949,9.299 21.23829,15 25.31784,22.9512 36.12364,60.482 26.83794,93.2149 -9.383,33.07588 -34.93403,58.73808 -67.10943,67.39838 -8.8528,2.3828 -29.55695,3.4775 -37.71875,1.9941 -29.6805,-5.3943 -55.51592,-24.7633 -68.98242,-51.7187 -19.9777,-39.98868 -9.93274,-86.37518 24.88086,-114.90238 4.8383,-3.9646 20.22436,-13.3986 21.85156,-13.3984 z m 34.04102,6.3086 c -28.7753,1.613 -52.91201,21.4035 -59.94141,49.1504 -1.947,7.6854 -1.93927,23.4444 0.0156,31.0801 2.7979,10.929 8.6746,21.6155 16.2832,29.6074 10.1317,10.64208 22.35419,17.26968 36.55469,19.82618 6.874,1.2376 20.84852,0.4571 27.63672,-1.545 33.9048,-9.99988 54.50838,-45.39368 45.99804,-79.01748 -3.1777,-12.5549 -7.32762,-19.7629 -16.98242,-29.4903 -6.8137,-6.8648 -10.21392,-9.4148 -17.01562,-12.7676 -11.0824,-5.463 -20.78493,-7.5031 -32.54883,-6.8437 z m 3.02148,4.3555 c 20.03481,-0.22 39.13863,9.4547 51.04297,27.3613 8.2677,12.4365 11.84181,27.5586 9.72461,41.1445 -1.3864,8.8966 -5.95633,20.3111 -10.74023,26.8281 -8.3959,11.4375 -22.31394,21.15468 -35.05274,24.47268 -7.8656,2.0488 -23.23326,1.8807 -30.94726,-0.3398 -9.7963,-2.8199 -18.40922,-7.98098 -26.04102,-15.60158 -19.0636,-19.0355 -23.63927,-46.3249 -11.82617,-70.5293 4.8247,-9.8855 16.87525,-22.0353 26.53125,-26.748 8.90212,-4.3448 18.20186,-6.488 27.30859,-6.5879 z" id="RSTICK" />
      <path style="fill:#000000" d="m 517.71559,277.3899 c -17.0342,0.1125 -24.17021,1.4829 -38.25781,7.3476 -15.4302,6.4236 -33.27703,20.9403 -41.95703,34.127 -19.3052,29.3287 -22.49936,62.4011 -9.03516,93.5527 14.2824,33.0444 44.591,56.31 78.4961,60.2539 10.3607,1.2055 10.3468,1.2047 20.2539,0.029 11.6904,-1.387 19.94938,-3.8521 31.01758,-9.2617 11.0503,-5.4008 19.01141,-11.3317 28.19531,-21 12.3779,-13.0307 21.2353,-28.4492 25.3711,-44.1641 2.6929,-10.2325 3.64433,-29.686 1.96093,-40.1211 -6.0657,-37.6009 -34.37872,-68.4846 -72.04492,-78.5859 -7.2359,-1.9405 -10.8051,-2.2647 -24,-2.1777 z m -0.5332,4.7539 c 7.7071,-0.083 15.3424,0.5874 20.0332,2.039 18.6889,5.7833 34.69155,17.7551 45.15235,33.7813 8.4402,12.9305 12.34765,26.3277 12.34765,42.3398 0,21.7399 -8.22981,40.6348 -24.66211,56.6231 -11.1039,10.8038 -21.15789,16.3913 -35.83789,19.914 -16.9192,4.0599 -35.37973,1.7055 -51.36523,-6.5507 -15.8791,-8.2012 -27.13631,-19.7118 -35.22461,-36.0157 -21.2444,-42.8231 2.10794,-94.9882 49.08984,-109.6582 4.9808,-1.5552 12.7597,-2.39 20.4668,-2.4726 z m 38.18945,6.7988 c 2.20409,-0.08 16.24004,8.8413 23.17383,14.832 13.6782,11.818 24.2039,28.4782 29.375,46.5 1.9704,6.8668 2.28552,10.1956 2.22852,23.5 -0.0598,13.9336 -0.34254,16.4047 -2.80274,24.4492 -5.3202,17.3968 -14.39881,32.2384 -27.29101,44.6192 -12.7313,12.2262 -25.37194,19.2783 -42.20704,23.5488 -19.0557,4.8339 -40.69431,2.4281 -58.63281,-6.5176 -19.637,-9.7927 -35.0806,-25.2577 -44.5332,-44.5996 -7.863,-16.0893 -9.47145,-23.1656 -9.43945,-41.5 0.0317,-18.0405 1.67158,-25.3773 9.05078,-40.5 8.1238,-16.6487 22.82293,-32.1046 38.45703,-40.4375 8.2781,-4.4122 8.20074,-3.7784 -0.22266,1.8555 -22.4891,15.0416 -36.82964,41.6473 -36.80664,68.2891 0.0374,44.2352 40.65243,82.0165 85.45313,79.4921 11.8376,-0.667 19.40032,-2.5176 29.23242,-7.1542 31.3396,-14.779 49.71096,-44.4177 48.03906,-77.5 -1.332,-26.3573 -17.05639,-52.995 -38.52539,-65.2618 -2.9125,-1.6642 -5.06636,-3.2559 -4.78516,-3.5371 0.0489,-0.049 0.12793,-0.074 0.23633,-0.078 z m -35.29297,6.1074 c -1.94194,-0.062 -3.89803,-0.032 -5.86328,0.092 -10.9923,0.6942 -17.76139,2.6017 -27.27929,7.6895 -9.2958,4.969 -15.2291,9.9154 -20.9043,17.4277 -20.8255,27.5662 -17.79923,63.9963 7.26367,87.4414 9.8337,9.1989 20.73693,14.6552 34.17773,17.1055 6.5045,1.1859 20.59019,0.3571 27.24219,-1.6035 17.1749,-5.0619 32.65747,-18.0087 40.57227,-33.9278 6.6836,-13.4428 8.89332,-28.9825 6.04492,-42.5 -6.17119,-29.2863 -32.1247,-50.7876 -61.25391,-51.7246 z m -1.79882,4.4453 c 5.56877,0 11.03244,0.5647 14.93554,1.7051 10.1175,2.9563 19.41258,8.4779 27.05078,16.0684 11.917,11.8425 17.75646,26.0386 17.68946,43.0058 -0.1061,26.9242 -19.77587,52.1782 -45.88477,58.9141 v 0 c -7.5719,1.953 -21.91457,1.9592 -29.35547,0.014 -26.2384,-6.8604 -46,-32.1984 -46,-58.9805 0,-27.1206 19.3459,-51.9339 46,-59.0019 4.3218,-1.1463 9.99568,-1.7228 15.56446,-1.7266 z" id="STICK" />
      <path style="fill:#b8b8b8;fill-opacity:1;stroke:#1a1a1a;stroke-width:7.404" d="M 167.4943,984.05195 C 127.7206,979.89096 97.220868,966.69177 71.658725,942.57773 34.429793,907.45784 14.214711,853.0841 7.7146609,770.58346 5.770006,745.90131 6.8638135,683.34169 9.7706677,652.99148 17.062814,576.85483 34.348981,485.5923 61.965339,377.42908 90.586618,265.32995 131.46089,132.87607 143.86415,112.03443 c 5.67189,-9.53071 20.40678,-24.442401 31.13757,-31.511204 19.49204,-12.840199 49.83794,-24.754791 81.62393,-32.047698 82.08199,-18.832704 188.50457,-23.881431 476.88628,-22.623663 175.00044,0.763259 231.95942,2.359165 293.64367,8.22746 105.2699,10.014792 176.2722,34.959903 204.0321,71.682205 9.0397,11.95824 13.4641,22.38353 27.6583,65.17223 16.2572,49.00747 27.7264,89.40569 45.0918,158.82694 33.2298,132.8428 50.0207,219.31977 59.63,307.10929 3.4533,31.54914 4.9464,111.39624 2.59,138.5079 -6.7164,77.27594 -26.4365,130.46459 -61.4361,165.70394 -29.3153,29.5162 -66.1799,43.41622 -114.9712,43.3507 -32.0047,-0.043 -46.5027,-4.95134 -62.6886,-21.22347 -10.5998,-10.65618 -15.2298,-19.48474 -27.3963,-52.23991 -11.8469,-31.8947 -18.8527,-47.72819 -27.9063,-63.07013 -14.0682,-23.83951 -29.2975,-38.48046 -48.6564,-46.77693 l -10.3131,-4.41977 -121.45643,-1.04626 c -158.25582,-1.36325 -517.34612,-0.36064 -526.73938,1.4707 -9.66021,1.88339 -26.75504,10.51392 -36.35718,18.35536 -10.60912,8.66377 -23.29835,25.78111 -32.9389,44.43342 -7.19442,13.91966 -10.89941,22.82598 -28.14555,67.65854 -3.38476,8.79887 -8.43771,19.4177 -11.22879,23.5974 -10.58565,15.85211 -24.9935,26.06193 -43.52934,30.84614 -9.77355,2.52261 -31.02774,3.48559 -44.89993,2.03433 z m -14.04834,-113.9408 c 0.3102,-0.89786 1.19704,-17.50017 1.97078,-36.89402 4.75924,-119.291 27.56132,-291.39298 48.94317,-369.40557 13.35705,-48.73374 39.66438,-78.59077 82.95634,-94.14982 18.60105,-6.68519 35.89902,-9.38945 70.93946,-11.09027 12.79909,-0.62126 23.65438,-1.51287 24.12286,-1.98135 3.42329,-3.42328 -12.42931,-4.18938 -41.22868,-1.99242 -49.48381,3.77489 -81.08457,16.56626 -106.86786,43.25807 -22.90895,23.71618 -32.28255,46.22581 -44.94241,107.92397 -13.92504,67.86408 -28.5808,177.1058 -35.78142,266.70918 -2.66057,33.10748 -5.21163,91.7194 -4.17232,95.86038 0.89619,3.5707 3.10417,4.52884 4.06008,1.76185 z m 1067.00564,-7.8359 c 1.1778,-12.58334 -1.2907,-74.43763 -4.6258,-115.90598 -10.4304,-129.69241 -28.4384,-251.38839 -44.1678,-298.48065 -16.1572,-48.37311 -52.9408,-79.49956 -105.5266,-89.29707 -32.8209,-6.11503 -75.94577,-7.24925 -70.5521,-1.85559 0.37501,0.37501 11.0634,1.21442 23.752,1.86535 60.184,3.08749 90.2389,13.71057 117.1822,41.41884 25.5757,26.3018 34.3585,49.41247 47.3058,124.47873 16.6797,96.70593 32.034,250.31409 32.048,320.61632 0,15.84689 1.0886,26.62843 2.6809,26.62843 0.5594,0 1.4159,-4.26077 1.9034,-9.46838 z M 515.21028,755.30013 c 16.7027,-4.18935 36.19375,-21.8496 41.91138,-37.97465 2.00333,-5.64981 9.01793,-47.02614 21.97694,-129.63315 11.80559,-75.25449 12.78136,-83.37207 11.1275,-92.5725 -3.39588,-18.89142 -17.35629,-37.5292 -34.35823,-45.86981 -8.89793,-4.36504 -13.3769,-5.23863 -100.26507,-19.55588 C 343.51044,411.2238 342.48092,411.0936 330.29169,413.84627 c -12.83404,2.8983 -23.15196,8.7729 -32.4921,18.49969 -10.88677,11.33745 -15.18083,21.01135 -19.00348,42.81219 -7.22267,41.19135 -25.28653,161.42368 -27.36858,182.16427 -2.38244,23.73294 12.257,49.3875 34.97733,61.29519 7.20763,3.7775 14.74361,5.29294 118.62404,23.85437 91.12288,16.28191 94.73479,16.70244 110.18138,12.82815 z m 402.24275,-2.98953 c 15.08411,-2.57691 57.39796,-9.99401 94.03077,-16.48242 60.1505,-10.65387 67.5393,-12.23511 76.2447,-16.31673 16.5788,-7.77314 30.1081,-24.04215 34.7209,-41.75195 3.6294,-13.93431 3.9275,-11.16489 -14.4038,-133.81759 -11.7863,-78.86079 -14.0821,-90.52988 -19.695,-100.10762 -5.6035,-9.56166 -16.5671,-19.46647 -27.5625,-24.90068 -8.9002,-4.39871 -11.0213,-4.90377 -22.3851,-5.33016 -11.2347,-0.42153 -22.0194,1.1247 -102.6662,14.7196 -49.56206,8.35484 -94.52052,16.09187 -99.9077,17.19341 -22.44402,4.58921 -39.72828,19.36322 -47.15815,40.3092 -3.85835,10.87735 -3.50965,25.1495 1.4205,58.14092 9.97983,66.78286 25.00371,160.68359 26.83202,167.70294 5.42253,20.81852 19.8305,36.10155 41.07718,43.57202 11.15361,3.92168 22.66117,3.35436 59.45238,-2.93094 z M 737.27452,609.87388 c 4.65641,-2.87995 7.38255,-5.8627 10.14579,-11.10085 3.37696,-6.40153 3.69952,-8.04183 3.03514,-15.4345 -1.12933,-12.56647 -8.27122,-22.04392 -18.81904,-24.97334 -6.49783,-1.80463 -80.33325,-1.78672 -86.84301,0.0211 -6.41984,1.78279 -13.80083,8.34497 -16.79193,14.92907 -7.30153,16.07239 2.6648,36.49487 19.50376,39.96607 2.65829,0.54799 22.51123,0.89154 44.11763,0.76347 l 39.28438,-0.23287 z M 510.01504,414.07632 c 27.36363,-8.74761 49.19496,-28.095 61.98335,-54.931 7.0741,-14.84477 8.51733,-22.07661 8.47047,-42.44445 -0.0376,-16.33696 -0.338,-18.47043 -4.0939,-29.07276 -5.14562,-14.52533 -10.71103,-23.77118 -21.08223,-35.0241 -10.42803,-11.31457 -23.66457,-20.13571 -38.73132,-25.81147 -9.82748,-3.7021 -14.09029,-4.55377 -25.51181,-5.09706 -31.43968,-1.49548 -54.70571,7.31316 -76.49588,28.96175 -36.46414,36.22724 -38.04852,91.07741 -3.84372,133.0674 9.39617,11.53477 26.90242,23.87187 41.17114,29.01435 18.44341,6.64705 39.97503,7.14237 58.1339,1.33734 z m 412.00893,0.60605 c 27.52332,-9.30716 48.1901,-27.48628 60.16744,-52.92509 7.1674,-15.22293 9.2611,-24.77248 9.19921,-41.95859 -0.0668,-18.56224 -2.4795,-29.12734 -10.25097,-44.88928 -5.02991,-10.20155 -8.09982,-14.40292 -17.27116,-23.63676 -19.46018,-19.59277 -39.04843,-28.53191 -64.89822,-29.6164 -18.83857,-0.79036 -30.73353,1.71676 -48.12237,10.14285 -29.16859,14.13416 -47.48334,38.13477 -53.66416,70.32435 -4.73936,24.68248 0.1935,48.77338 14.52646,70.94388 14.35345,22.20215 36.50623,37.97444 61.33941,43.6723 11.85949,2.72111 38.10382,1.61867 48.97436,-2.05726 z m 215.48723,-73.80501 c 31.0813,-10.87983 40.13,-52.55896 16.4148,-75.60756 -9.2695,-9.00893 -16.1972,-11.82603 -30.3925,-12.35887 -10.7643,-0.40407 -12.8089,-0.0906 -19.5897,3.00405 -19.1423,8.73593 -30.3522,29.48673 -26.6751,49.37821 3.4843,18.84809 16.3198,33.09593 33.776,37.49227 6.3836,1.60771 19.0265,0.69622 26.4665,-1.9081 z m -854.24581,-20.431 c 6.88234,-1.47538 12.58289,-5.29198 15.01364,-10.05187 1.22108,-2.3911 1.95944,-10.54298 2.3472,-25.91409 0.37077,-14.69812 1.10371,-23.07386 2.12703,-24.30689 1.20453,-1.45138 6.60221,-2.02679 23.62092,-2.51812 26.59637,-0.7678 30.24218,-2.02477 35.3831,-12.19896 3.18102,-6.29544 3.26496,-7.18338 3.26496,-34.54018 0,-31.80801 -0.83029,-35.33325 -9.60741,-40.79139 -4.33858,-2.69797 -6.77173,-3.01665 -27.57801,-3.61203 -22.74563,-0.65088 -22.82496,-0.66358 -24.46793,-3.91795 -1.12716,-2.23264 -1.65441,-10.12042 -1.66757,-24.94704 -0.0181,-20.32764 -0.20389,-21.95929 -2.97496,-26.11966 -4.03862,-6.06345 -10.29159,-8.80269 -23.97404,-10.50233 -12.68999,-1.576348 -38.69816,-0.72155 -46.56749,1.53051 -6.41141,1.83482 -13.50961,8.13496 -15.11424,13.41491 -0.69855,2.29854 -1.64006,13.87079 -2.09224,25.71611 -0.45217,11.84531 -1.41404,22.12993 -2.13748,22.85469 -0.72394,0.72529 -11.41595,1.63148 -23.78065,2.01551 -24.46907,0.75998 -28.40067,1.79372 -33.28196,8.75093 -5.00368,7.13164 -6.02655,13.2169 -6.09512,36.26073 -0.0423,14.23916 0.54611,24.57719 1.64082,28.82519 1.84916,7.17569 6.39832,13.04149 11.66803,15.04502 1.82828,0.69511 13.5476,1.63361 26.04292,2.08554 14.09092,0.50965 23.07047,1.36285 23.64491,2.24665 0.5094,0.78373 1.22098,12.10899 1.5813,25.16727 0.58854,21.32877 0.92922,24.11674 3.35137,27.42564 3.97544,5.43082 10.87907,8.28241 23.04331,9.51817 12.13569,1.23288 37.85551,0.44026 46.60959,-1.43636 z m 930.45941,-58.63922 c 19.1006,-7.14644 29.8553,-22.63181 29.9019,-43.05499 0.041,-17.71624 -8.749,-32.76376 -24.0367,-41.15039 -6.4045,-3.51346 -8.0698,-3.83292 -20.0446,-3.84511 -11.7466,-0.012 -13.7541,0.35004 -19.9632,3.60009 -14.1105,7.38594 -22.1758,17.97939 -25.0948,32.9612 -4.3075,22.10849 10.5386,46.17164 32.6511,52.92235 6.4753,1.97682 19.3235,1.28424 26.5863,-1.43315 z m -503.15746,-5.74443 c 23.68694,-11.81693 34.08999,-38.68928 24.69681,-63.79481 -3.66517,-9.79608 -15.91166,-23.06705 -25.08365,-27.18203 -5.76974,-2.58857 -9.06498,-3.10322 -19.98859,-3.12177 -12.16385,-0.0207 -13.68994,0.27785 -21.79009,4.26216 -9.70276,4.77261 -18.67076,13.6991 -22.98621,22.87983 -12.91658,27.47883 1.22904,60.14494 30.15115,69.62724 9.01739,2.9564 26.37623,1.63189 35.00058,-2.67062 z m 351.39976,0.29557 c 9.0788,-4.17067 16.841,-11.96576 21.6339,-21.72582 3.1957,-6.50736 3.6298,-8.87536 3.6298,-19.79826 0,-10.89644 -0.438,-13.29868 -3.5977,-19.73273 -4.8643,-9.90494 -15.3105,-19.57116 -25.1669,-23.28767 -6.3773,-2.40465 -9.7118,-2.84563 -18.2508,-2.41359 -17.7915,0.90019 -30.368,9.53058 -39.0252,26.78032 -2.95772,5.89344 -3.41921,8.4588 -3.41921,19.00682 0,10.38814 0.48337,13.16382 3.26421,18.74418 5.214,10.46325 11.5682,16.86585 21.9187,22.0858 9.0368,4.55742 9.8836,4.73249 20.5265,4.2437 8.4176,-0.38659 12.8861,-1.32994 18.4867,-3.90275 z m 80.7013,-81.009 c 15.8327,-8.01861 25.5262,-24.60396 24.6582,-42.18974 -1.4261,-28.89356 -29.4625,-49.575037 -56.682,-41.812366 -23.5028,6.702731 -37.3173,28.181516 -33.0326,51.359446 5.7085,30.87988 37.2692,46.71577 65.0564,32.64266 z M 480.8918,130.52293 c 12.01038,-7.85317 13.23664,-25.16999 2.47111,-34.896008 l -5.04984,-4.562223 -26.6078,-0.933033 c -29.0374,-1.018229 -43.34453,0.190018 -48.64633,4.108211 -5.9531,4.399532 -9.02641,11.584133 -8.36532,19.555983 0.94507,11.3963 8.03837,18.70016 19.6835,20.2678 3.74132,0.50364 19.14393,0.62817 34.22803,0.27672 26.31232,-0.61305 27.62298,-0.76802 32.28665,-3.81745 z m 499.93451,-1.23062 c 6.40255,-6.09147 8.16073,-10.49261 7.55223,-18.90506 -0.35717,-4.9378 -1.52035,-8.77029 -3.50975,-11.564154 -5.26493,-7.393924 -8.99024,-8.442195 -32.34097,-9.100485 -29.01872,-0.818078 -44.95713,0.482357 -50.33567,4.10695 -9.95985,6.711949 -12.70434,21.086329 -5.76343,30.186329 7.57469,9.93091 7.66574,9.94978 46.08099,9.55014 l 34.19858,-0.35577 z M 696.80127,120.2098 c 6.65164,-6.65164 2.16468,-17.69014 -7.19073,-17.69014 -8.67197,0 -12.78085,12.06788 -6.07329,17.83746 4.57576,3.93591 9.23252,3.88418 13.26402,-0.14732 z" transform="translate(33.923347,55.346467)" id="path1" />
      <path style="fill:#666666;fill-opacity:1;stroke:#1a1a1a;stroke-width:7.404" d="m 178.06891,67.150819 c 1.58117,-8.118024 8.50694,-20.262891 15.03998,-26.373786 13.41365,-12.546907 37.93205,-21.739759 74.61762,-27.976903 20.03154,-3.4056877 79.86859,-3.4209637 89.60256,-0.02287 7.15047,2.496196 18.35517,11.087727 16.59446,12.724272 -0.58597,0.544638 -11.05616,1.965311 -23.2671,3.157051 -70.36601,6.867445 -116.18386,17.113651 -154.75899,34.608618 -8.26034,3.746311 -15.8466,7.157025 -16.85836,7.579367 -1.4621,0.610326 -1.66117,-0.148016 -0.97017,-3.695744 z" transform="translate(33.923347,55.346467)" id="LB" />
      <path style="fill:#666666;stroke:#1a1a1a;stroke-width:7.404" d="m 1189.7505,66.703359 c -35.0222,-17.92282 -96.601,-31.971183 -169.5145,-38.672424 -14.3168,-1.315802 -17.2991,-1.945661 -16.9778,-3.585692 0.508,-2.59345 11.6354,-10.228831 17.7833,-12.202583 6.9107,-2.218642 56.4763,-3.0136483 72.5755,-1.164075 54.7868,6.294211 90.8729,22.131494 101.8727,44.709289 3.6907,7.57548 5.6845,15.424695 3.8924,15.323965 -0.6285,-0.03533 -4.9627,-2.019143 -9.6316,-4.40848 z" transform="translate(33.923347,55.346467)" id="RB" />
      <path style="fill:#666666;stroke:#1a1a1a;stroke-width:7.404" d="m 481.90771,740.32382 c -1.79572,-0.34504 -37.64495,-6.5118 -79.66496,-13.7039 -42.02,-7.1921 -82.13696,-14.18152 -89.14879,-15.53202 -14.89418,-2.86866 -26.18722,-8.32661 -33.13057,-16.01206 -6.52564,-7.2231 -12.35061,-20.2559 -13.11925,-29.35299 -0.46275,-5.4768 2.7472,-29.58535 11.86745,-89.13137 18.64195,-121.71298 18.36122,-120.37493 27.87778,-132.87449 4.80971,-6.31733 17.58334,-14.28666 25.8728,-16.14176 8.50883,-1.90419 13.01985,-1.40434 67.16328,7.44218 108.34146,17.70197 145.53867,24.70435 152.3692,28.68353 7.03742,4.09969 14.24455,12.43923 18.55615,21.47173 5.83248,12.21862 5.08577,20.61637 -10.10288,113.62052 -16.56909,101.45713 -17.92783,108.72935 -21.70878,116.19071 -4.19891,8.28617 -12.75291,16.48505 -22.16868,21.24836 -6.77712,3.42846 -9.54809,4.04279 -19.64394,4.3552 -6.46462,0.20003 -13.22308,0.0814 -15.01881,-0.26364 z" transform="translate(33.923347,55.346467)" id="LPAD" />
      <path style="fill:#666666;stroke:#1a1a1a;stroke-width:7.404" d="M 868.47867,740.73742 C 854.06857,736.57336 843.74708,728.5806 837.50339,716.75079 832.801,707.84124 832.35585,705.46486 817.60888,610.54704 802.01152,510.1558 801.64052,507.43802 802.52431,500.04523 c 2.20995,-18.48592 17.33833,-35.68085 34.82514,-39.58229 19.78578,-4.41436 191.37365,-33.15446 198.31005,-33.21592 16.1118,-0.14277 32.8528,10.83279 40.726,26.70023 4.0977,8.25858 4.3788,9.88011 20.6924,119.37927 13.5204,90.75037 13.8693,96.07783 7.1683,109.45171 -4.8453,9.67025 -15.0225,20.026 -23.4799,23.89184 -7.3154,3.34382 -37.6191,9.06085 -130.66369,24.65071 -65.69447,11.00728 -73.14495,11.86681 -81.62394,9.41664 z" transform="translate(33.923347,55.346467)" id="RPAD" />
      <g id="LGRIPTOUCH" transform="translate(-733.54339,-5.5408165)">
        <path style="baseline-shift:baseline;display:inline;overflow:visible;vector-effect:none;fill:#c8c8c8;enable-background:accumulate;stop-color:#000000" d="m 820.13947,467.92567 c 7.40454,-29.0009 92.12215,23.99895 103.05287,85.72488 10.93071,61.72592 11.01799,49.24823 0.115,98.78194 -18.51804,84.12995 -19.3165,72.22208 -27.94535,155.04744 -2.62385,25.18536 -0.72265,108.62887 25.86573,129.81689 34.93346,26.63583 114.59908,53.68574 100.00728,71.06838 -10.5857,15.8521 -24.9935,26.0615 -43.52934,30.8457 -9.77355,2.5226 -31.0282,3.4864 -44.90039,2.0352 -39.7737,-4.161 -70.2738,-17.3606 -95.83594,-41.47457 -37.22893,-35.11988 -57.44331,-89.4935 -63.94336,-171.99414 -1.94465,-24.68215 -0.85021,-87.24158 2.05664,-117.59179 7.29215,-76.13665 17.4405,-134.09671 45.05686,-242.25993 z" id="path4" />
        <path id="path5" style="baseline-shift:baseline;display:inline;overflow:visible;vector-effect:none;fill:#1a1a1a;enable-background:accumulate;stop-color:#000000" d="m 825.46827,457.09061 c -0.19662,0.0692 -0.39019,0.14205 -0.58399,0.21875 -4.02301,1.59218 -7.16177,5.12538 -8.33007,9.70117 -27.641,108.25973 -37.85002,166.53863 -45.15625,242.82227 -2.94447,30.74303 -4.05416,92.95745 -2.0625,118.23632 6.53725,82.9728 26.96402,138.42684 65.09375,174.39648 26.14084,24.6599 57.60749,38.238 97.99218,42.4629 14.43006,1.5096 35.40076,0.6574 46.21094,-2.1328 19.25805,-4.9706 34.54277,-15.7729 45.57427,-32.2149 2.3977,-2.9745 3.0213,-7.0058 1.8535,-10.3789 -0.3196,-0.92297 -0.735,-1.80968 -1.2305,-2.66793 l -5.4531,6.54493 c -0.016,0.5906 -0.3025,1.1033 -0.9766,1.9062 l -0.1308,0.1563 -0.1114,0.168 c -10.1318,15.1724 -23.62562,24.7366 -41.37693,29.3183 -8.73693,2.255 -30.27552,3.3303 -43.58984,1.9375 -39.1627,-4.0971 -68.69625,-16.9183 -93.67969,-40.48631 -36.32813,-34.27011 -56.33012,-87.56331 -62.79297,-169.5918 -1.89764,-24.08543 -0.81845,-86.98986 2.05078,-116.94726 7.27807,-75.98966 17.36726,-133.63056 44.95898,-241.69727 0.27243,-1.06699 0.61486,-1.89236 1.06055,-2.55078 -0.33283,0.20599 -0.49023,0.3457 -0.49023,0.3457 l 1.17187,-9.54687 c -5.8e-4,2e-4 -0.001,-2.1e-4 -0.002,0 z" />
      </g>
      <g id="RGRIPTOUCH" transform="matrix(-1,0,0,1,2175.122,-5.5408165)">
        <path style="baseline-shift:baseline;display:inline;overflow:visible;vector-effect:none;fill:#c8c8c8;enable-background:accumulate;stop-color:#000000" d="m 820.13947,467.92567 c 7.40454,-29.0009 92.12215,23.99895 103.05287,85.72488 10.93071,61.72592 11.01799,49.24823 0.115,98.78194 -18.51804,84.12995 -19.3165,72.22208 -27.94535,155.04744 -2.62385,25.18536 -0.72265,108.62887 25.86573,129.81689 34.93346,26.63583 114.59908,53.68574 100.00728,71.06838 -10.5857,15.8521 -24.9935,26.0615 -43.52934,30.8457 -9.77355,2.5226 -31.0282,3.4864 -44.90039,2.0352 -39.7737,-4.161 -70.2738,-17.3606 -95.83594,-41.47457 -37.22893,-35.11988 -57.44331,-89.4935 -63.94336,-171.99414 -1.94465,-24.68215 -0.85021,-87.24158 2.05664,-117.59179 7.29215,-76.13665 17.4405,-134.09671 45.05686,-242.25993 z" id="path6" />
        <path id="path7" style="baseline-shift:baseline;display:inline;overflow:visible;vector-effect:none;fill:#1a1a1a;enable-background:accumulate;stop-color:#000000" d="m 825.46827,457.09061 c -0.19662,0.0692 -0.39019,0.14205 -0.58399,0.21875 -4.02301,1.59218 -7.16177,5.12538 -8.33007,9.70117 -27.641,108.25973 -37.85002,166.53863 -45.15625,242.82227 -2.94447,30.74303 -4.05416,92.95745 -2.0625,118.23632 6.53725,82.9728 26.96402,138.42684 65.09375,174.39648 26.14084,24.6599 57.60749,38.238 97.99218,42.4629 14.43006,1.5096 35.40076,0.6574 46.21094,-2.1328 19.25805,-4.9706 34.54277,-15.7729 45.57427,-32.2149 2.3977,-2.9745 3.0213,-7.0058 1.8535,-10.3789 -0.3196,-0.92297 -0.735,-1.80968 -1.2305,-2.66793 l -5.4531,6.54493 c -0.016,0.5906 -0.3025,1.1033 -0.9766,1.9062 l -0.1308,0.1563 -0.1114,0.168 c -10.1318,15.1724 -23.62562,24.7366 -41.37693,29.3183 -8.73693,2.255 -30.27552,3.3303 -43.58984,1.9375 -39.1627,-4.0971 -68.69625,-16.9183 -93.67969,-40.48631 -36.32813,-34.27011 -56.33012,-87.56331 -62.79297,-169.5918 -1.89764,-24.08543 -0.81845,-86.98986 2.05078,-116.94726 7.27807,-75.98966 17.36726,-133.63056 44.95898,-241.69727 0.27243,-1.06699 0.61486,-1.89236 1.06055,-2.55078 -0.33283,0.20599 -0.49023,0.3457 -0.49023,0.3457 l 1.17187,-9.54687 c -5.8e-4,2e-4 -0.001,-2.1e-4 -0.002,0 z" />
      </g>
    </g>
  </g>
  <g id="RGRIP" transform="matrix(0.23391414,0,0,0.23391414,410.62356,166.93414)" inkscape:label="#RGRIP">
    <path style="fill:#6c6c6c;fill-opacity:1;stroke:#1a1a1a;stroke-width:12;stroke-dasharray:none;stroke-opacity:1;opacity:0" d="m 792.30666,360.74398 c 74.66305,-9.98844 149.24504,47.28156 174.57717,115.85578 8.44135,22.85079 9.82034,47.32703 8.78225,71.47146 -1.92697,44.81797 -26.63773,89.1201 -60.78335,116.78451 -21.23138,17.20149 -49.04285,29.84318 -75.79131,33.5129 -56.94763,7.81288 -115.5584,-11.59771 -155.24165,-55.00214 -66.85904,-73.12859 -58.49898,-195.88322 24.24433,-253.15751 25.6817,-17.77667 53.88213,-25.40738 84.21256,-29.465 m -7.48556,18.1061 c 14.9137,-1.99408 31.8631,0.91735 46.78476,4.71765 4.37907,1.11524 7.77223,2.59026 12.16404,3.95153 6.45734,2.00152 6.94649,0.10923 14.03543,3.17212 34.0314,14.70399 64.81383,40.31298 81.58451,74.47294 31.94808,65.07468 14.44748,150.25187 -45.09241,192.45895 -19.37975,13.73807 -42.2655,21.43452 -65.49865,24.54591 -6.12272,0.81994 -17.8524,1.61853 -23.39239,1.1662 -4.43849,-0.36243 -4.69771,-2.29177 -10.29264,-2.74859 -4.32827,-0.35341 -6.48017,0.0517 -10.29265,-0.45955 -7.43636,-0.99733 -16.90739,-2.46537 -24.32807,-4.63756 -7.79784,-2.28257 -15.29788,-4.72143 -22.45669,-8.00821 -12.99553,-5.96648 -25.62695,-14.26165 -36.49211,-24.06717 -12.92457,-11.66408 -23.95644,-25.13727 -32.34932,-40.07183 -1.64452,-2.92632 -2.88961,-5.54601 -4.37382,-8.57657 -19.2681,-39.34304 -21.98075,-86.37682 -4.16151,-126.74272 2.349,-5.32116 4.82825,-10.17863 7.43861,-15.24724 1.98301,-3.85056 3.78717,-7.03896 6.07263,-10.4825 9.747,-14.68607 21.41498,-27.56058 35.79467,-37.47912 5.24313,-3.61649 11.08996,-7.43005 16.8425,-10.40081 18.53972,-9.57456 37.5837,-12.83183 58.01311,-15.56343 m 69.24144,10.07801 -3.74277,3.81182 c 16.7666,12.15667 33.6395,20.66588 47.30965,37.16515 19.04349,22.98464 30.93962,51.77104 35.41491,81.00099 0.94516,6.17331 1.488,12.70724 1.488,19.05906 0,3.37465 -9.4e-4,5.51299 -0.39709,8.57657 -0.78886,6.10102 -1.96237,15.10143 -3.34861,21.91793 -4.29835,21.13589 -13.09391,41.41859 -25.29478,59.08306 -15.25221,22.08222 -37.18577,39.27807 -61.72195,49.36236 -9.26669,3.80855 -19.24809,6.6858 -29.00655,8.35306 -2.16571,0.37003 -8.92309,1.21212 -10.26955,1.44851 -2.85911,0.50199 -3.60877,1.23038 -4.70158,1.82505 m 48.65615,-290.6506 1.8714,2.85886" id="RGRIP-5" sodipodi:nodetypes="cssssssccssssssssssssssssssscccsssssssssccc" />
    <text xml:space="preserve" style="font-size:149.333px;line-height:1.25;font-family:'Bitstream Vera Sans Mono';-inkscape-font-specification:'Bitstream Vera Sans Mono';letter-spacing:0px;word-spacing:0px;fill:#1a1a1a;opacity:0" x="714.95465" y="571.23029" id="text2-0"><tspan sodipodi:role="line" id="tspan2-5" x="714.95465" y="571.23029" style="font-style:normal;font-variant:normal;font-weight:bold;font-stretch:normal;font-size:149.333px;font-family:'Apolonia Nova OT';-inkscape-font-specification:'Apolonia Nova OT Bold';fill:#1a1a1a">R4</tspan></text>
  </g>
  <g id="RGRIP2" transform="matrix(0.23391414,0,0,0.23391414,404.6299,153.08091)" inkscape:label="#RGRIP2">
    <path style="fill:#6c6c6c;fill-opacity:1;stroke:#1a1a1a;stroke-width:12;stroke-dasharray:none;stroke-opacity:1;opacity:0" d="m 783.82205,792.90411 c 20.64783,-2.73025 45.44397,1.42194 65.31697,8.06836 39.2348,13.12195 73.5655,39.61945 95.8354,74.72245 16.7828,26.454 26.9146,57.162 29.0364,88.1007 0.3182,4.6399 0.8877,6.9657 0.8877,11.7468 0,5.0528 -0.6893,7.6023 -0.9373,12.7256 -3.8026,78.55008 -66.1512,143.15838 -143.3449,152.42848 -118.40025,14.2185 -216.16423,-121.357 -183.54976,-231.71908 12.27014,-41.5201 37.6113,-77.7475 76.31294,-98.3897 13.70895,-7.31191 28.70077,-12.36703 43.86959,-15.35423 5.34024,-1.05163 11.41866,-1.64788 16.57296,-2.32938 m 40.94497,27.97261 c 7.3112,-6.6316 15.7602,-1.5773 24.372,1.7727 21.34,8.3016 40.4695,22.1973 56.543,38.362 48.487,48.762 62.6739,127.3008 30.3296,188.92718 -12.8399,24.4642 -32.8678,45.9717 -57.6262,58.4913 -11.7025,5.9176 -25.1984,11.311 -38.0203,13.4923 -6.169,1.0496 -6.1507,-0.7871 -11.6986,-0.1488 -2.8261,0.3252 -6.8935,0.7894 -9.7488,1.1671 -4.6911,0.6201 -10.0579,0.4153 -14.62319,0.4153 -2.92958,0 -4.77693,0.032 -7.79904,0 -9.48033,-0.1131 -22.72355,-2.6021 -32.17103,-5.3091 -7.9591,-2.2805 -15.25053,-5.5281 -22.42224,-9.1288 -4.61212,-2.3155 -8.3489,-4.2264 -12.67344,-7.0978 -18.00401,-11.9545 -33.82073,-28.0132 -45.81861,-46.0043 -5.64393,-8.4634 -11.01922,-17.3707 -15.02338,-26.4303 -1.48257,-3.3544 -2.58291,-6.3878 -3.93787,-9.7889 -9.7723,-24.53078 -13.9728,-51.58678 -12.14838,-78.31178 1.08447,-15.8861 6.08638,-32.4887 12.31238,-46.9871 1.47567,-3.4363 2.69617,-6.4008 4.42605,-9.7889 3.31413,-6.4911 7.28934,-12.7209 11.44656,-18.5991 14.16574,-20.0302 35.37248,-37.4538 58.49205,-45.6713 13.97251,-4.9662 30.26388,-8.167 44.84447,-8.168 3.85627,-2e-4 5.99733,0 9.7488,0 4.56427,0 9.27582,0.5369 13.64827,1.3596 3.5597,0.6698 8.6983,1.2139 12.5817,3.0507 3.2872,1.5549 3.9171,3.2029 4.9662,4.3998 m -2.9247,-3.9156 c 2.0013,-0.9526 2.8843,-1.8752 6.8242,0 m -2.9246,2.9367 c 19.6584,12.2686 39.3706,19.5464 56.5046,36.3068 20.7852,20.3279 35.1013,47.8794 42.9331,75.2836 2.4292,8.4998 5.3288,20.6072 5.8147,29.3669 0.1382,2.4922 0.2621,4.301 0.5957,6.8523 0.3668,2.8045 0.4138,4.7896 0.4138,7.8312 0,3.3617 -0.1553,5.7153 -0.5612,8.81 -1.7557,13.3878 -3.5309,26.70578 -7.8908,40.13478 -9.1062,28.0484 -24.9024,53.475 -48.0911,71.9981 -8.2311,6.5749 -17.588,12.0344 -27.2966,16.0913 -3.0913,1.2918 -9.295,3.5774 -11.6745,4.6754 -2.9599,1.3659 -3.715,2.2579 -4.8985,3.1671" id="RGRIP2-0" sodipodi:nodetypes="csssssssssccsssssscscssssssssssssssscccccsssssssssc" />
    <text xml:space="preserve" style="font-size:149.333px;line-height:1.25;font-family:'Bitstream Vera Sans Mono';-inkscape-font-specification:'Bitstream Vera Sans Mono';letter-spacing:0px;word-spacing:0px;fill:#1a1a1a;opacity:0" x="710.22345" y="1004.972" id="text2-0-2"><tspan sodipodi:role="line" id="tspan2-5-2" x="710.22345" y="1004.972" style="font-style:normal;font-variant:normal;font-weight:bold;font-stretch:normal;font-size:149.333px;font-family:'Apolonia Nova OT';-inkscape-font-specification:'Apolonia Nova OT Bold';fill:#1a1a1a">R5</tspan></text>
  </g>
  <g id="LGRIP2" transform="matrix(0.23391414,0,0,0.23391414,2.1424689,154.79522)" inkscape:label="#LGRIP2">
    <path style="fill:#6c6c6c;fill-opacity:1;stroke:#1a1a1a;stroke-width:12;stroke-dasharray:none;stroke-opacity:1;opacity:0" d="m 418.15059,785.57531 c -20.64783,-2.73025 -45.44402,1.42194 -65.31695,8.06836 -39.23487,13.12192 -73.56553,39.61949 -95.83538,74.72244 -16.78282,26.45401 -26.91468,57.16201 -29.03647,88.10073 -0.31821,4.63988 -0.88765,6.96564 -0.88765,11.74677 0,5.05277 0.68927,7.60231 0.93728,12.72566 3.80259,78.55003 66.15116,143.15833 143.34494,152.42843 118.40021,14.2185 216.16419,-121.357 183.54972,-231.71909 -12.27014,-41.52011 -37.6113,-77.74753 -76.31294,-98.38973 -13.70895,-7.31187 -28.70077,-12.36699 -43.86959,-15.35419 -5.34024,-1.05163 -11.41866,-1.64788 -16.57296,-2.32938 m -40.94496,27.97257 c -7.31117,-6.63154 -15.76021,-1.5773 -24.37199,1.77278 -21.34007,8.30153 -40.46948,22.19727 -56.54303,38.36199 -48.48701,48.762 -62.67393,127.30077 -30.32962,188.92715 12.83991,24.4642 32.86785,45.9717 57.62625,58.4913 11.70249,5.9176 25.19837,11.311 38.02032,13.4923 6.16898,1.0496 6.15066,-0.7871 11.69856,-0.1488 2.8261,0.3252 6.89348,0.7894 9.74879,1.1671 4.69108,0.6201 10.05792,0.4153 14.6232,0.4153 2.92958,0 4.77693,0.032 7.79904,0 9.48033,-0.1131 22.72355,-2.6021 32.17103,-5.3091 7.9591,-2.2805 15.25053,-5.5281 22.42224,-9.1288 4.61212,-2.3155 8.3489,-4.2264 12.67344,-7.0978 18.00401,-11.9545 33.82073,-28.0132 45.81861,-46.0043 5.64393,-8.4634 11.01922,-17.3707 15.02338,-26.4303 1.48257,-3.3544 2.58291,-6.3878 3.93787,-9.7889 9.7723,-24.53077 13.9728,-51.5868 12.14838,-78.31177 -1.08447,-15.88613 -6.08638,-32.48871 -12.31238,-46.98706 -1.47567,-3.43632 -2.69617,-6.40081 -4.42605,-9.78897 -3.31413,-6.49106 -7.28934,-12.72086 -11.44656,-18.59904 -14.16574,-20.03019 -35.37248,-37.45388 -58.49205,-45.67132 -13.97251,-4.96624 -30.26388,-8.16704 -44.84447,-8.16802 -3.85627,-2e-4 -5.99733,0 -9.7488,0 -4.56427,0 -9.27582,0.53693 -13.64832,1.35959 -3.55964,0.66976 -8.69829,1.21393 -12.58168,3.05073 -3.28719,1.55488 -3.91708,3.20286 -4.96616,4.39975 m 2.92464,-3.91558 c -2.00128,-0.95257 -2.88429,-1.87518 -6.82415,0 m 2.92464,2.93669 c -19.65844,12.26861 -39.3706,19.54642 -56.50465,36.3068 -20.78516,20.32797 -35.10127,47.87942 -42.9331,75.28364 -2.42917,8.49977 -5.32881,20.60716 -5.81465,29.36691 -0.13822,2.49218 -0.26216,4.30098 -0.59579,6.85228 -0.36671,2.80454 -0.41372,4.78965 -0.41372,7.83118 0,3.36173 0.1553,5.71529 0.56117,8.81007 1.75572,13.38779 3.5309,26.70572 7.89079,40.13472 9.10617,28.0484 24.90245,53.475 48.09107,71.9981 8.23109,6.5749 17.58806,12.0344 27.29664,16.0913 3.0913,1.2918 9.29504,3.5774 11.67452,4.6754 2.95987,1.3659 3.715,2.2579 4.89844,3.1671" id="LGRIP2-9" sodipodi:nodetypes="csssssssssccsssssscscssssssssssssssscccccsssssssssc" />
    <text xml:space="preserve" style="font-size:149.333px;line-height:1.25;font-family:'Bitstream Vera Sans Mono';-inkscape-font-specification:'Bitstream Vera Sans Mono';letter-spacing:0px;word-spacing:0px;fill:#1a1a1a;opacity:0" x="327.87787" y="998.57751" id="text2-3"><tspan sodipodi:role="line" id="tspan2-0" x="327.87787" y="998.57751" style="font-style:normal;font-variant:normal;font-weight:bold;font-stretch:normal;font-size:149.333px;font-family:'Apolonia Nova OT';-inkscape-font-specification:'Apolonia Nova OT Bold';fill:#1a1a1a">L5</tspan></text>
  </g>
  <g id="LGRIP" transform="matrix(1.1060296,0,0,1.1060296,-33.696232,-32.921155)" inkscape:label="#LGRIP">
    <path style="fill:#6c6c6c;fill-opacity:1;stroke:#1a1a1a;stroke-width:2.53788;stroke-dasharray:none;stroke-opacity:1;opacity:0" d="m 113.88056,256.98988 c -15.790484,-2.11245 -31.563825,9.99958 -36.921316,24.50234 -1.785261,4.83271 -2.076903,10.00919 -1.857358,15.11549 0.407535,9.47855 5.633613,18.84801 12.855068,24.69875 4.490224,3.63794 10.37207,6.31153 16.029096,7.08764 12.04386,1.65235 24.43944,-2.4528 32.83205,-11.6324 14.14002,-15.46596 12.37195,-41.42733 -5.12743,-53.54027 -5.43142,-3.75958 -11.39553,-5.3734 -17.81011,-6.23155 m 1.58312,3.82926 c -3.1541,-0.42173 -6.73872,0.19401 -9.8945,0.99774 -0.92613,0.23586 -1.64375,0.54781 -2.57258,0.83571 -1.36566,0.4233 -1.46911,0.0231 -2.96835,0.67087 -7.197299,3.10974 -13.707473,8.52579 -17.254303,15.75028 -6.756698,13.76264 -3.055497,31.77676 9.536591,40.70313 4.098622,2.90546 8.938732,4.53318 13.852302,5.19121 1.2949,0.17341 3.77561,0.34231 4.94726,0.24664 0.9387,-0.0766 0.99352,-0.48468 2.17679,-0.5813 0.91539,-0.0747 1.37049,0.0109 2.17679,-0.0972 1.57272,-0.21092 3.57574,-0.5214 5.14514,-0.98079 1.64917,-0.48275 3.23535,-0.99854 4.74937,-1.69366 2.74842,-1.26185 5.41984,-3.0162 7.71771,-5.08997 2.73342,-2.46683 5.06655,-5.31628 6.84156,-8.47478 0.3478,-0.61889 0.61112,-1.17293 0.92502,-1.81386 4.07501,-8.32066 4.64871,-18.26783 0.88012,-26.80481 -0.49679,-1.12538 -1.02113,-2.15268 -1.57319,-3.22464 -0.41939,-0.81436 -0.80095,-1.48867 -1.2843,-2.21695 -2.0614,-3.10595 -4.52906,-5.82878 -7.57022,-7.92645 -1.10887,-0.76485 -2.34541,-1.57138 -3.56202,-2.19967 -3.92096,-2.02492 -7.94857,-2.7138 -12.26919,-3.29151 m -14.64387,2.1314 0.79156,0.80616 c -3.545966,2.57101 -7.114415,4.37063 -10.005514,7.86006 -4.027507,4.86102 -6.543419,10.94905 -7.489898,17.13089 -0.199892,1.30559 -0.314697,2.68746 -0.314697,4.0308 0,0.71371 1.99e-4,1.16594 0.08398,1.81386 0.166836,1.2903 0.415021,3.1938 0.708197,4.63542 0.909058,4.47003 2.76923,8.75962 5.349592,12.49548 3.225689,4.67016 7.864416,8.30691 13.05357,10.43964 1.95981,0.80547 4.07078,1.41398 6.1346,1.76659 0.45802,0.0783 1.88714,0.25635 2.1719,0.30634 0.60468,0.10617 0.76322,0.26021 0.99434,0.38598 m -10.29029,-61.46968 -0.39578,0.60462" id="LGRIP-9" sodipodi:nodetypes="cssssssccssssssssssssssssssscccsssssssssccc" />
    <text x="98.910621" y="301.3247" style="font-size:31.5824px;line-height:1.25;font-family:'Bitstream Vera Sans Mono';letter-spacing:0px;word-spacing:0px;fill:#1a1a1a;opacity:0"><tspan style="font-style:normal;font-variant:normal;font-weight:bold;font-stretch:normal;font-size:31.5824px;font-family:'Apolonia Nova OT';-inkscape-font-specification:'Apolonia Nova OT Bold';fill:#1a1a1a" x="98.910621" y="301.3247">L4</tspan></text></g>
  <g id="controller" />
  <g id="layerAreas" style="display:none">
    <rect id="AREA_A" x="534.961" y="126.054" width="52.026501" height="46.604401" style="fill:none;stroke:none" />
    <rect id="AREA_B" x="572.53101" y="87.004997" width="49.303902" height="47.456501" style="fill:none;stroke:none" />
    <rect id="AREA_X" x="499.08499" y="84.651703" width="45.311401" height="45.610199" style="fill:none;stroke:none" />
    <rect id="AREA_Y" x="536.35797" y="44.869801" width="48.2869" height="45.652599" style="fill:none;stroke:none" />
    <rect id="AREA_C" x="317.742" y="80.260399" width="55.264301" height="50.216" style="fill:none;stroke:none" />
    <rect id="AREA_BACK" x="197.289" y="45.118999" width="47.853001" height="22.014999" style="fill:none;stroke:none" />
    <rect id="AREA_START" x="445.74701" y="45.158798" width="48.626499" height="21.895599" style="fill:none;stroke:none" />
    <rect id="AREA_DOTS" x="312.397" y="278.46399" width="62.6959" height="28.4433" style="fill:none;stroke:none" />
    <rect id="AREA_LB" x="86.949997" y="3.25" width="101.95" height="34.099998" style="fill:none;stroke:none" />
    <rect id="AREA_RB" x="499.75" y="3.1500001" width="102.1" height="34.25" style="fill:none;stroke:none" />
    <rect id="AREA_STICK" x="193.14999" y="111" width="97.150002" height="98.099998" style="fill:none;stroke:none" />
    <rect id="AREA_RSTICK" x="397.89999" y="110.7" width="97.849998" height="98.400002" style="fill:none;stroke:none" />
    <rect id="AREA_LPAD" x="131.55" y="211.5" width="157.25" height="160.7" style="fill:none;stroke:none" />
    <rect id="AREA_RPAD" x="399.29999" y="211.75" width="156.8" height="161" style="fill:none;stroke:none" />
    <rect id="AREA_DPAD" x="72.849998" y="50.25" width="109.85" height="110.9" style="fill:none;stroke:none" />
    <rect id="AREA_LT" x="20" y="5" width="60" height="32" style="fill:none;stroke:none" />
    <rect id="AREA_RT" x="605" y="5" width="60" height="32" style="fill:none;stroke:none" />
    <rect id="AREA_LGRIPTOUCH" x="0.43138" y="198.101" width="129.151" height="294.28799" style="fill:none;stroke:none" />
    <rect id="AREA_RGRIPTOUCH" x="557.28497" y="198.101" width="129.151" height="294.28799" style="fill:none;stroke:none" />
    <rect id="AREA_LPADTEST" x="131.55" y="211.5" width="157.25" height="160.7" style="fill:none;stroke:none" />
    <rect id="AREA_RPADTEST" x="399.29999" y="211.75" width="156.8" height="161" style="fill:none;stroke:none" />
    <rect id="AREA_STICKTEST" x="193.14999" y="111" width="97.150002" height="98.099998" style="fill:none;stroke:none" />
    <rect id="AREA_RSTICKTEST" x="397.89999" y="110.7" width="97.849998" height="98.400002" style="fill:none;stroke:none" />
    <rect id="AREA_DPADTEST" x="72.849998" y="50.25" width="109.85" height="110.9" style="fill:none;stroke:none" />
  </g>
  
  <path id="LT" style="fill:#6c6c6c;fill-opacity:1;stroke:#1a1a1a;stroke-width:3.81946;stroke-dasharray:none;stroke-opacity:1" d="m 108.54807,-11.764105 c -4.23931,-0.06386 -8.634741,0.332288 -12.57949,1.8862855 -3.170486,1.2489783 -6.674675,2.8636727 -8.429668,5.7846067 -2.10807,3.50858709 -2.413456,8.2413716 -1.381144,12.2022376 0.923104,3.5417972 6.404843,8.9177572 6.404843,8.9177572 0,0 4.75513,-4.129317 7.481199,-5.663117 5.15436,-2.9000647 10.86769,-4.7170916 16.497,-6.5305946 5.38138,-1.733627 9.49015,-3.0446031 16.44797,-4.13703805 6.95781,-1.092436 25.24425,-1.64330576 25.24425,-1.64330576 0,0 -11.73853,-2.68893359 -17.60959,-4.02620559 -6.0985,-1.389074 -12.54289,-3.0921772 -18.86711,-4.4013312 -4.38116,-0.9069298 -8.73473,-2.3219048 -13.20826,-2.3892948 z" />
  <path id="RT" style="fill:#6c6c6c;fill-opacity:1;stroke:#1a1a1a;stroke-width:3.81946;stroke-dasharray:none;stroke-opacity:1" d="m 580.46085,-11.764105 c -4.47353,0.06739 -8.8271,1.482364 -13.20825,2.3892938 -6.32421,1.3091541 -12.77073,3.0143875 -18.86924,4.4034625 -5.87107,1.337271 -17.60959,4.02620559 -17.60959,4.02620559 0,0 18.28643,0.54873931 25.24424,1.64117427 6.95783,1.09243604 11.0666,2.40554394 16.44798,4.13916994 5.6293,1.813502 11.34477,3.628397 16.49913,6.5284629 2.72608,1.533799 7.47907,5.665249 7.47907,5.665249 0,0 5.48387,-5.37596 6.40697,-8.9177579 1.03232,-3.960865 0.72267,-8.6936505 -1.38541,-12.2022375 -1.75499,-2.920936 -5.25493,-4.537761 -8.4254,-5.7867381 -3.94476,-1.5539975 -8.34017,-1.9501445 -12.5795,-1.8862845 z" />
  <circle id="STICKPRESS" cx="241.87006" cy="152.5101" style="fill:#6c6c6c;fill-opacity:1;stroke:#1a1a1a;stroke-width:1.80271;stroke-opacity:1" r="31.247162" />
  <circle id="LSTICKTOUCH" cx="241.87006" cy="152.5101" r="14.0612" style="fill:#6c6c6c;fill-opacity:1;opacity:0" /><circle id="RSTICKPRESS" cx="447.24908" cy="152.36534" r="31.456326" style="fill:#6c6c6c;fill-opacity:1;stroke:#1a1a1a;stroke-width:1.81479;stroke-opacity:1" />
<circle id="RSTICKTOUCH" cx="447.24908" cy="152.36534" r="14.1553" style="fill:#6c6c6c;fill-opacity:1;opacity:0" /></svg>